<?xml version="1.0" standalone="no"?>
<!DOCTYPE svg PUBLIC "-//W3C//DTD SVG 20010904//EN"
 "http://www.w3.org/TR/2001/REC-SVG-20010904/DTD/svg10.dtd">
<svg version="1.0" xmlns="http://www.w3.org/2000/svg"
 width="100%" height="100%" viewBox="0 0 512 512"
 preserveAspectRatio="xMidYMid meet">

<g transform="translate(0,512) scale(0.1,-0.1)"
fill="#000000" stroke="none">
<path d="M1402 4253 c-50 -10 -87 -70 -266 -440 l-180 -370 -385 -94 c-338
-82 -389 -97 -413 -121 l-28 -26 0 -176 c0 -174 0 -177 23 -185 12 -5 105 -30
207 -55 102 -26 202 -52 223 -57 l37 -10 0 -644 0 -645 -32 0 c-62 0 -108 -19
-128 -53 -25 -41 -26 -103 -2 -116 28 -15 52 5 52 44 0 24 6 38 19 45 27 14
4035 14 4062 0 16 -9 19 -22 19 -90 l0 -80 -2200 0 c-2383 0 -2242 3 -2270
-51 -6 -11 -12 -72 -13 -135 -2 -93 1 -117 13 -124 20 -13 4820 -13 4840 0 12
7 15 31 15 112 0 128 -7 154 -48 178 -27 17 -50 20 -149 20 l-118 0 0 83 c0
125 -37 167 -147 167 l-33 0 0 645 0 644 38 10 c20 5 127 33 237 61 110 28
204 55 210 61 12 12 19 245 10 308 -13 85 -14 85 -446 190 l-385 94 -180 370
c-182 375 -215 429 -269 439 -14 3 -115 -3 -223 -13 -327 -30 -548 -39 -933
-39 -420 0 -746 16 -1099 54 -19 2 -45 2 -58 -1z m253 -88 c589 -49 1219 -49
1805 0 96 8 185 17 197 20 58 13 62 6 266 -408 l194 -394 399 -99 399 -99 5
-139 c4 -122 3 -139 -12 -147 -12 -7 -388 -103 -480 -123 -13 -3 -19 5 -24 31
-4 20 -19 50 -35 67 l-28 32 177 38 c97 21 187 42 200 47 30 11 39 37 20 56
-14 13 -33 11 -174 -21 -1384 -309 -2779 -297 -4157 36 l-208 50 3 36 3 37
399 99 399 99 194 394 c199 405 207 417 258 407 11 -2 101 -10 200 -19z m-889
-1476 l44 -11 0 -624 0 -624 -60 0 -60 0 0 635 c0 568 2 635 16 635 8 0 35 -5
60 -11z m3664 -624 l0 -635 -60 0 -60 0 0 575 c0 524 -1 576 -16 582 -9 3 -24
2 -33 -4 -14 -9 -16 -68 -19 -582 l-2 -571 -100 0 -100 0 0 380 c0 367 -1 381
-20 400 -19 19 -33 20 -203 20 -174 0 -185 -1 -203 -21 -18 -20 -19 -44 -22
-403 l-3 -381 -99 3 -100 3 0 554 0 554 58 6 c271 30 722 101 877 138 33 8 70
15 83 16 l22 1 0 -635z m-3299 556 c181 -31 549 -81 593 -81 3 0 6 -249 6
-554 l0 -555 -100 -3 -100 -3 0 245 c0 135 -1 306 -3 381 -3 190 11 179 -224
179 -170 0 -184 -1 -203 -20 -19 -19 -20 -33 -20 -400 l0 -380 -100 0 -100 0
0 615 c0 347 4 615 9 615 5 0 114 -18 242 -39z m763 -97 c14 -6 16 -63 16
-550 l0 -544 -55 0 -55 0 0 550 0 550 39 0 c22 0 46 -3 55 -6z m1426 -544 l0
-550 -55 0 -55 0 0 544 c0 426 3 545 13 549 6 3 31 6 55 6 l42 1 0 -550z
m-820 525 c217 0 449 2 515 5 l120 5 3 -542 2 -542 -86 -3 c-47 -2 -88 -1 -90
1 -2 2 -4 215 -4 472 l0 468 -22 15 c-34 24 -722 24 -756 0 l-22 -15 0 -468
c0 -257 -2 -470 -4 -472 -2 -2 -43 -3 -90 -1 l-86 3 0 538 c0 296 3 541 7 544
3 4 31 4 62 0 31 -4 234 -7 451 -8z m86 -219 c3 -8 6 -52 7 -98 l2 -83 72 -3
c61 -2 75 -6 84 -23 18 -34 -4 -48 -84 -51 l-72 -3 0 -110 0 -110 70 -3 c89
-4 114 -22 79 -56 -11 -11 -35 -16 -83 -16 l-67 0 -2 -92 c-2 -84 -9 -108 -32
-108 -22 0 -30 23 -31 91 -1 110 0 109 -74 109 -44 0 -68 5 -79 16 -35 34 -10
52 79 56 l70 3 0 110 0 110 -72 3 c-80 3 -102 17 -84 51 9 17 23 21 84 23 l72
3 2 83 c1 46 4 90 7 98 7 18 45 18 52 0z m-1251 -258 c3 -13 4 -117 3 -232 -3
-182 -5 -210 -20 -219 -12 -8 -21 -7 -32 2 -14 12 -16 45 -16 236 0 122 3 225
7 228 16 16 53 6 58 -15z m2510 -212 c0 -203 -2 -230 -17 -239 -12 -8 -21 -7
-32 2 -14 12 -16 44 -16 226 0 118 3 221 6 230 4 10 16 15 33 13 l26 -3 0
-229z m1073 -798 l3 -88 -2361 0 -2360 0 0 83 c0 46 3 87 7 90 3 4 1064 6
2357 5 l2351 -3 3 -87z"/>
<path d="M1532 4053 c-23 -44 -392 -945 -392 -957 0 -22 27 -39 46 -28 10 5
100 211 216 491 159 386 197 485 187 497 -16 19 -46 18 -57 -3z"/>
<path d="M3531 4056 c-10 -12 24 -103 187 -497 114 -276 207 -486 216 -491 20
-11 46 6 46 31 -1 9 -90 230 -198 491 -164 396 -201 475 -218 478 -11 2 -26
-4 -33 -12z"/>
<path d="M1736 4042 c-2 -4 -68 -229 -146 -500 -149 -518 -151 -528 -96 -520
17 3 38 64 163 498 78 272 140 503 137 513 -5 17 -48 24 -58 9z"/>
<path d="M3326 4033 c-3 -10 59 -241 137 -513 125 -434 146 -495 163 -498 55
-8 53 3 -91 505 -76 263 -141 488 -146 501 -10 27 -55 31 -63 5z"/>
<path d="M1951 4031 c-9 -6 -45 -175 -107 -502 -52 -272 -94 -501 -94 -510 0
-23 24 -41 44 -33 21 8 21 7 122 547 87 464 91 493 58 504 -5 1 -15 -1 -23 -6z"/>
<path d="M3132 4028 c-7 -7 -12 -21 -12 -31 0 -20 176 -959 186 -989 11 -36
64 -28 64 11 0 9 -42 238 -94 509 -97 512 -104 540 -144 500z"/>
<path d="M2176 4002 c-4 -10 -35 -241 -70 -513 -46 -350 -61 -497 -54 -506 13
-16 44 -17 53 -2 11 16 137 1009 131 1025 -8 21 -54 18 -60 -4z"/>
<path d="M2884 4006 c-6 -16 121 -1009 131 -1026 9 -14 40 -13 53 3 7 8 -9
159 -54 506 -35 272 -66 502 -69 513 -7 22 -53 25 -61 4z"/>
<path d="M2411 3988 c-4 -13 -20 -245 -34 -517 -20 -369 -24 -497 -16 -507 14
-17 48 -18 54 -1 12 29 61 1023 52 1035 -15 20 -47 14 -56 -10z"/>
<path d="M2653 3998 c-9 -12 40 -1005 52 -1035 6 -17 40 -16 54 0 8 10 4 139
-14 493 -14 263 -29 495 -33 514 -8 38 -40 53 -59 28z"/>
</g>
</svg>
