<svg width="100%" height="100%" viewBox="0 0 49 49" fill="none" xmlns="http://www.w3.org/2000/svg">
<circle cx="24.5767" cy="24.3635" r="23.5" stroke="white"/>
<path d="M10.047 19.051H12.0782V23.8479H17.3438V19.051H19.3907V30.3635H17.3438V25.551H12.0782V30.3635H10.047V19.051ZM31.1782 24.7073C31.1782 25.9 30.9543 26.9338 30.5063 27.8088C30.0584 28.6838 29.4412 29.3557 28.6548 29.8245C27.8735 30.288 26.9855 30.5198 25.9907 30.5198C24.9959 30.5198 24.1053 30.288 23.3188 29.8245C22.5376 29.3557 21.923 28.6838 21.4751 27.8088C21.0272 26.9286 20.8032 25.8948 20.8032 24.7073C20.8032 23.5146 21.0272 22.4807 21.4751 21.6057C21.923 20.7307 22.5376 20.0614 23.3188 19.5979C24.1053 19.1292 24.9959 18.8948 25.9907 18.8948C26.9855 18.8948 27.8735 19.1292 28.6548 19.5979C29.4412 20.0614 30.0584 20.7307 30.5063 21.6057C30.9543 22.4807 31.1782 23.5146 31.1782 24.7073ZM29.1313 24.7073C29.1313 23.8635 28.9985 23.1448 28.7329 22.551C28.4725 21.9521 28.1053 21.4989 27.6313 21.1917C27.1574 20.8792 26.6105 20.7229 25.9907 20.7229C25.3709 20.7229 24.8241 20.8792 24.3501 21.1917C23.8761 21.4989 23.5063 21.9521 23.2407 22.551C22.9803 23.1448 22.8501 23.8635 22.8501 24.7073C22.8501 25.551 22.9803 26.2724 23.2407 26.8713C23.5063 27.4651 23.8761 27.9182 24.3501 28.2307C24.8241 28.538 25.3709 28.6917 25.9907 28.6917C26.6105 28.6917 27.1574 28.538 27.6313 28.2307C28.1053 27.9182 28.4725 27.4651 28.7329 26.8713C28.9985 26.2724 29.1313 25.551 29.1313 24.7073ZM31.5907 19.051H40.6063V20.7542H37.122V30.3635H35.0907V20.7542H31.5907V19.051Z" fill="white"/>
</svg>
